<svg xmlns="http://www.w3.org/2000/svg" viewBox="0 0 32 32" width="32" height="32">
  <circle cx="16" cy="16" r="15" fill="#F0A830"/>
  <!-- Hoja central -->
  <path d="M16 6 C16 6, 24 12, 22 20 C20 26, 16 26, 16 26 C16 26, 12 26, 10 20 C8 12, 16 6, 16 6Z" fill="white" opacity="0.95"/>
  <!-- Nervadura central -->
  <line x1="16" y1="8" x2="16" y2="24" stroke="#F0A830" stroke-width="0.8" opacity="0.5"/>
  <!-- Hoja izquierda pequeña -->
  <path d="M12 10 C12 10, 7 14, 9 18 C10 20, 12 19, 13 17 C14 14, 12 10, 12 10Z" fill="white" opacity="0.7"/>
  <!-- Hoja derecha pequeña -->
  <path d="M20 10 C20 10, 25 14, 23 18 C22 20, 20 19, 19 17 C18 14, 20 10, 20 10Z" fill="white" opacity="0.7"/>
</svg>
